{"title":"Yukinojo Henge / An Actor's Revenge (Kon Ichikawa, 1963)","uid":9220395,"size":1627155791,"categoryP":"video","categoryS":"movies","magnet":"?xt=urn:btih:1ccd3179119a8c233e2897b250490a7bf8e1dd8b&amp;dn=Yukinojo+Henge+%2F+An+Actor%27s+Revenge+%28Kon+Ichikawa%2C+1963%29&amp;tr=udp%3A%2F%2Ftracker.openbittorrent.com%3A80&amp;tr=udp%3A%2F%2Fopen.demonii.com%3A1337&amp;tr=udp%3A%2F%2Ftracker.coppersurfer.tk%3A6969&amp;tr=udp%3A%2F%2Fexodus.desync.com%3A6969","seeders":0,"leechers":2,"uploader":"moonflux","files":4,"time":1384923987,"description":" While performing in a touring kabuki troupe, leading female impersonator Yukinojo comes across the three men who drove his parents to suicide twenty years earlier, and plans his revenge, firstly by seducing the daughter of one of them, secondly by ruining them... \n\nMediainfo:\n\nGeneral\nUnique ID : 237553244938290872986946803959881032147 (0xB2B7173D717EDD8187F80529DECC61D3)\nComplete name : An Actor's Revenge (1963) -- Kon Ichikawa.mkv\nFormat : Matroska\nFormat version : Version 2\nFile size : 1.51 GiB\nDuration : 1h 48mn\nOverall bit rate : 1 994 Kbps\nEncoded date : UTC 2013-11-15 04:53:49\nWriting application : mkvmerge v6.2.0 ('Promised Land') built on Apr 28 2013 12:22:01\nWriting library : libebml v1.3.0 + libmatroska v1.4.0\n\nVideo\nID : 1\nFormat : AVC\nFormat/Info : Advanced Video Codec\nFormat profile : &lt;a class=&quot;__cf_email__&quot; href=&quot;/cdn-cgi/l/email-protection&quot; data-cfemail=&quot;0e466769664e423d203f&quot;&gt;[email&amp;#160;protected]&lt;/a&gt;&lt;script cf-hash='f9e31' type=&quot;text/javascript&quot;&gt;\n/* &lt;![CDATA[ */!function(){try{var t=&quot;currentScript&quot;in document?document.currentScript:function(){for(var t=document.getElementsByTagName(&quot;script&quot;),e=t.length;e--;)if(t[e].getAttribute(&quot;cf-hash&quot;))return t[e]}();if(t&amp;&amp;t.previousSibling){var e,r,n,i,c=t.previousSibling,a=c.getAttribute(&quot;data-cfemail&quot;);if(a){for(e=&quot;&quot;,r=parseInt(a.substr(0,2),16),n=2;a.length-n;n+=2)i=parseInt(a.substr(n,2),16)^r,e+=String.fromCharCode(i);e=document.createTextNode(e),c.parentNode.replaceChild(e,c)}}}catch(u){}}();/* ]]&gt; */&lt;/script&gt;\nFormat settings, CABAC : Yes\nFormat settings, ReFrames : 8 frames\nCodec ID : V_MPEG4/ISO/AVC\nDuration : 1h 48mn\nBit rate : 1 800 Kbps\nWidth : 720 pixels\nHeight : 430 pixels\nDisplay aspect ratio : 2.40:1\nOriginal display aspect ratio : 2.40:1\nFrame rate : 25.000 fps\nColor space : YUV\nChroma subsampling : 4:2:0\nBit depth : 8 bits\nScan type : Progressive\nBits/(Pixel*Frame) : 0.233\nStream size : 1.34 GiB (88%)\nWriting library : x264 core 133 r2334 a3ac64b\nEncoding settings : cabac=1 // deblock=1:0:0 / analyse=0x3:0x133 / me=umh / subme=9 / psy=1 / psy_rd=1.00:0.15 // me_range=28 / chroma_me=1 / trellis=2 / 8x8dct=1 / cqm=0 / deadzone=21,11 / fast_pskip=0 / chroma_qp_offset=-3 / threads=3 / lookahead_threads=1 / sliced_threads=0 / nr=0 / decimate=0 / interlaced=0 / bluray_compat=0 / constrained_intra=0 / bframes=5 / b_pyramid=2 / b_adapt=2 / b_bias=0 / direct=3 / weightb=1 / open_gop=0 / weightp=2 / keyint=250 / keyint_min=25 / scenecut=40 / intra_refresh=0 / rc_lookahead=150 / rc=2pass / mbtree=1 / bitrate=1800 / ratetol=3.0 / qcomp=0.60 / qpmin=0 / qpmax=69 / qpstep=4 / cplxblur=20.0 / qblur=0.5 / vbv_maxrate=14000 / vbv_bufsize=14000 / nal_hrd=none / ip_ratio=1.40 / aq=1:1.00\nLanguage : English\n\nAudio\nID : 2\nFormat : AC-3\nFormat/Info : Audio Coding 3\nMode extension : CM (complete main)\nCodec ID : A_AC3\nDuration : 1h 48mn\nBit rate mode : Constant\nBit rate : 192 Kbps\nChannel(s) : 1 channel\nChannel positions : Front: C\nSampling rate : 48.0 KHz\nBit depth : 16 bits\nCompression mode : Lossy\nStream size : 149 MiB (10%)","torrent":{"xt":"urn:btih:1ccd3179119a8c233e2897b250490a7bf8e1dd8b","amp;dn":"Yukinojo+Henge+%2F+An+Actor%27s+Revenge+%28Kon+Ichikawa%2C+1963%29","amp;tr":["udp%3A%2F%2Ftracker.openbittorrent.com%3A80","udp%3A%2F%2Fopen.demonii.com%3A1337","udp%3A%2F%2Ftracker.coppersurfer.tk%3A6969","udp%3A%2F%2Fexodus.desync.com%3A6969"],"infoHash":"1ccd3179119a8c233e2897b250490a7bf8e1dd8b","infoHashBuffer":{"type":"Buffer","data":[28,205,49,121,17,154,140,35,62,40,151,178,80,73,10,123,248,225,221,139]},"announce":[],"urlList":[]}}